<svg width="24" height="23" viewBox="0 0 24 23" fill="none" xmlns="http://www.w3.org/2000/svg">
    <path d="M3.85862 19.8599L0.0612537 3.00465C-0.285747 1.46443 0.885464 0 2.46429 0C3.61612 0 4.61417 0.79821 4.86732 1.92188L6.37309 8.60547C6.51169 9.22065 7.38829 9.22065 7.52689 8.60547L8.90863 2.47239C9.2343 1.02685 10.5182 0 12 0C13.4818 0 14.7657 1.02685 15.0914 2.47239L18.8887 19.3276C19.2357 20.8678 18.0645 22.3323 16.4857 22.3323C15.3339 22.3323 14.3358 21.5341 14.0827 20.4104L12.5769 13.7268C12.4383 13.1116 11.5617 13.1116 11.4231 13.7268L10.0414 19.8599C9.71569 21.3054 8.43176 22.3323 6.94999 22.3323C5.46822 22.3323 4.18429 21.3054 3.85862 19.8599Z" fill="url(#paint0_linear_2576_815)"/>
    <path d="M17.9039 7.37583L19.1327 1.92188C19.3858 0.79821 20.3839 0 21.5357 0C23.1145 0 24.2857 1.46443 23.9387 3.00465L21.2899 14.7619C21.0127 15.9922 19.2595 15.9922 18.9823 14.7619L17.9039 9.97526C17.7111 9.11951 17.7111 8.23158 17.9039 7.37583Z" fill="url(#paint1_linear_2576_815)"/>
    <defs>
        <linearGradient id="paint0_linear_2576_815" x1="-1.704" y1="-1.19478" x2="15.8362" y2="23.9056" gradientUnits="userSpaceOnUse">
            <stop stop-color="#5855EF"/>
            <stop offset="1" stop-color="#A752E9"/>
        </linearGradient>
        <linearGradient id="paint1_linear_2576_815" x1="-1.704" y1="-1.19478" x2="15.8362" y2="23.9056" gradientUnits="userSpaceOnUse">
            <stop stop-color="#5855EF"/>
            <stop offset="1" stop-color="#A752E9"/>
        </linearGradient>
    </defs>
</svg>
