<svg width="2715" height="604" viewBox="0 0 2715 604" fill="none" xmlns="http://www.w3.org/2000/svg">
    <path d="M104.36 537.132L1.65667 81.264C-7.72834 39.6072 23.9483 0 66.6493 0C97.8018 0 124.795 21.5885 131.642 51.9793L172.367 232.744C176.115 249.382 199.824 249.382 203.573 232.744L240.943 66.8684C249.751 27.7723 284.477 0 324.553 0C364.629 0 399.354 27.7723 408.162 66.8684L510.866 522.736C520.251 564.393 488.574 604 445.873 604C414.721 604 387.728 582.412 380.881 552.021L340.156 371.256C336.407 354.618 312.698 354.618 308.95 371.256L271.579 537.132C262.771 576.228 228.046 604 187.97 604C147.894 604 113.169 576.228 104.36 537.132Z" fill="url(#paint0_linear_343_2418)"/>
    <path d="M484.231 199.487L517.464 51.9792C524.31 21.5884 551.304 0 582.456 0C625.157 0 656.834 39.6072 647.449 81.264L575.809 399.25C568.312 432.527 520.894 432.527 513.397 399.25L484.231 269.792C479.017 246.647 479.017 222.632 484.231 199.487Z" fill="url(#paint1_linear_343_2418)"/>
    <path d="M820.8 602.3C789.533 602.3 761.533 594.133 736.8 577.8C712.533 561 693.167 538.133 678.7 509.2C664.233 479.8 657 446.667 657 409.8C657 372 664.233 338.633 678.7 309.7C693.167 280.767 713 258.133 738.2 241.8C763.4 225 792.1 216.6 824.3 216.6C842.033 216.6 858.133 219.167 872.6 224.3C887.533 229.433 900.6 236.667 911.8 246C923 254.867 932.567 265.367 940.5 277.5C948.433 289.167 954.267 301.767 958 315.3L934.9 312.5V264.3C934.9 242.209 952.809 224.3 974.9 224.3H1006.2C1028.29 224.3 1046.2 242.209 1046.2 264.3V556C1046.2 578.091 1028.29 596 1006.2 596H972.8C950.709 596 932.8 578.091 932.8 556V506.4L958 505.7C954.267 518.767 948.2 531.133 939.8 542.8C931.4 554.467 921.133 564.733 909 573.6C896.867 582.467 883.333 589.467 868.4 594.6C853.467 599.733 837.6 602.3 820.8 602.3ZM851.6 507.8C868.867 507.8 883.8 503.833 896.4 495.9C909 487.967 918.8 476.767 925.8 462.3C932.8 447.367 936.3 429.867 936.3 409.8C936.3 389.733 932.8 372.467 925.8 358C918.8 343.067 909 331.633 896.4 323.7C883.8 315.3 868.867 311.1 851.6 311.1C834.8 311.1 820.1 315.3 807.5 323.7C795.367 331.633 785.8 343.067 778.8 358C771.8 372.467 768.3 389.733 768.3 409.8C768.3 429.867 771.8 447.367 778.8 462.3C785.8 476.767 795.367 487.967 807.5 495.9C820.1 503.833 834.8 507.8 851.6 507.8Z" fill="url(#paint2_linear_343_2418)"/>
    <path d="M1185.03 596C1162.93 596 1145.03 578.091 1145.03 556V264.3C1145.03 242.209 1162.93 224.3 1185.03 224.3H1213.23C1234.61 224.3 1252.2 241.101 1253.19 262.45L1254.93 299.9L1232.53 308.3C1237.66 291.5 1246.76 276.333 1259.83 262.8C1273.36 248.8 1289.46 237.6 1308.13 229.2C1326.79 220.8 1346.39 216.6 1366.93 216.6C1394.93 216.6 1418.49 222.433 1437.63 234.1C1456.76 245.3 1471.23 262.333 1481.03 285.2C1490.83 307.6 1495.73 335.133 1495.73 367.8V556C1495.73 578.091 1477.82 596 1455.73 596H1423.03C1400.93 596 1383.03 578.091 1383.03 556V376.9C1383.03 361.967 1380.93 349.6 1376.73 339.8C1372.53 330 1365.99 322.767 1357.13 318.1C1348.73 312.967 1338.23 310.633 1325.63 311.1C1315.83 311.1 1306.73 312.733 1298.33 316C1289.93 318.8 1282.69 323.233 1276.63 329.3C1270.56 334.9 1265.66 341.433 1261.93 348.9C1258.66 356.367 1257.03 364.533 1257.03 373.4V556C1257.03 578.091 1239.12 596 1217.03 596H1185.03Z" fill="url(#paint3_linear_343_2418)"/>
    <path d="M1730.06 603.7C1697.86 603.7 1669.16 595.533 1643.96 579.2C1619.23 562.4 1599.63 539.533 1585.16 510.6C1570.7 481.2 1563.46 447.833 1563.46 410.5C1563.46 373.167 1570.7 340.033 1585.16 311.1C1599.63 281.7 1619.46 258.6 1644.66 241.8C1669.86 225 1698.8 216.6 1731.46 216.6C1748.26 216.6 1764.36 219.167 1779.76 224.3C1795.16 229.433 1809.16 236.433 1821.76 245.3C1834.36 254.167 1844.63 264.433 1852.56 276.1C1860.5 287.3 1865.16 298.967 1866.56 311.1L1839.96 317.4V118C1839.96 95.9086 1857.87 78 1879.96 78H1912.66C1934.75 78 1952.66 95.9086 1952.66 118V556C1952.66 578.091 1934.75 596 1912.66 596H1885.5C1864.56 596 1847.16 579.85 1845.61 558.967L1842.06 511.3L1864.46 514.8C1863.06 526.467 1858.4 537.667 1850.46 548.4C1842.99 559.133 1833.2 568.7 1821.06 577.1C1808.93 585.033 1794.93 591.333 1779.06 596C1763.66 601.133 1747.33 603.7 1730.06 603.7ZM1758.76 510.6C1776.03 510.6 1790.96 506.4 1803.56 498C1816.16 489.6 1825.73 477.933 1832.26 463C1839.26 448.067 1842.76 430.567 1842.76 410.5C1842.76 389.967 1839.26 372.233 1832.26 357.3C1825.73 342.367 1816.16 330.7 1803.56 322.3C1790.96 313.9 1776.03 309.7 1758.76 309.7C1741.49 309.7 1726.56 313.9 1713.96 322.3C1701.83 330.7 1692.26 342.367 1685.26 357.3C1678.26 372.233 1674.76 389.967 1674.76 410.5C1674.76 430.567 1678.26 448.067 1685.26 463C1692.26 477.933 1701.83 489.6 1713.96 498C1726.56 506.4 1741.49 510.6 1758.76 510.6Z" fill="url(#paint4_linear_343_2418)"/>
    <path d="M2224.47 603C2183.4 603 2147.7 594.833 2117.37 578.5C2087.04 561.7 2063.47 539.067 2046.67 510.6C2029.87 481.667 2021.47 448.767 2021.47 411.9C2021.47 383.433 2026.14 357.3 2035.47 333.5C2044.8 309.7 2057.87 289.167 2074.67 271.9C2091.47 254.167 2111.3 240.633 2134.17 231.3C2157.5 221.5 2182.94 216.6 2210.47 216.6C2236.6 216.6 2260.4 221.267 2281.87 230.6C2303.8 239.933 2322.7 253 2338.57 269.8C2354.44 286.6 2366.57 306.433 2374.97 329.3C2383.37 352.167 2387.1 377.133 2386.17 404.2L2385.47 434.3H2089.37L2073.27 371.3H2294.47L2282.57 384.6V370.6C2281.64 358.933 2277.9 348.667 2271.37 339.8C2265.3 330.467 2257.14 323.233 2246.87 318.1C2236.6 312.967 2224.94 310.4 2211.87 310.4C2193.67 310.4 2178.04 314.133 2164.97 321.6C2152.37 328.6 2142.8 339.1 2136.27 353.1C2129.74 366.633 2126.47 383.433 2126.47 403.5C2126.47 424.033 2130.67 442 2139.07 457.4C2147.94 472.333 2160.54 484 2176.87 492.4C2193.67 500.8 2213.5 505 2236.37 505C2252.24 505 2266.24 502.667 2278.37 498C2280.05 497.378 2281.74 496.699 2283.45 495.961C2304.36 486.952 2329.94 489.704 2343.09 508.289L2350.58 518.882C2362.44 535.644 2359.9 559.095 2342.39 569.821C2336.8 573.244 2331.09 576.37 2325.27 579.2C2308.94 587.133 2292.14 592.967 2274.87 596.7C2258.07 600.9 2241.27 603 2224.47 603Z" fill="url(#paint5_linear_343_2418)"/>
    <path d="M2497.53 596C2475.43 596 2457.53 578.091 2457.53 556V264.3C2457.53 242.209 2475.43 224.3 2497.53 224.3H2525.51C2546.97 224.3 2564.61 241.238 2565.48 262.683L2568.83 345.4L2547.83 322.3C2553.43 302.233 2562.53 284.267 2575.13 268.4C2588.19 252.533 2603.36 239.933 2620.63 230.6C2637.89 221.267 2656.33 216.6 2675.93 216.6C2679.84 216.6 2689.51 218.117 2698.74 219.739C2709.97 221.714 2717.02 232.857 2714.27 243.928L2693.55 327.276C2690.81 338.309 2679.44 344.829 2668.44 341.956C2657.65 339.137 2645.62 336.3 2640.93 336.3C2630.66 336.3 2621.09 338.167 2612.23 341.9C2603.36 345.167 2595.89 350.067 2589.83 356.6C2583.76 363.133 2578.86 370.833 2575.13 379.7C2571.86 388.567 2570.23 398.6 2570.23 409.8V556C2570.23 578.091 2552.32 596 2530.23 596H2497.53Z" fill="url(#paint6_linear_343_2418)"/>
    <defs>
        <linearGradient id="paint0_linear_343_2418" x1="-192.756" y1="-32.314" x2="-28.5289" y2="950.62" gradientUnits="userSpaceOnUse">
            <stop stop-color="#5855EF"/>
            <stop offset="1" stop-color="#A752E9"/>
        </linearGradient>
        <linearGradient id="paint1_linear_343_2418" x1="-192.756" y1="-32.314" x2="-28.5289" y2="950.62" gradientUnits="userSpaceOnUse">
            <stop stop-color="#5855EF"/>
            <stop offset="1" stop-color="#A752E9"/>
        </linearGradient>
        <linearGradient id="paint2_linear_343_2418" x1="-192.756" y1="-32.314" x2="-28.5289" y2="950.62" gradientUnits="userSpaceOnUse">
            <stop stop-color="#5855EF"/>
            <stop offset="1" stop-color="#A752E9"/>
        </linearGradient>
        <linearGradient id="paint3_linear_343_2418" x1="-192.756" y1="-32.314" x2="-28.5289" y2="950.62" gradientUnits="userSpaceOnUse">
            <stop stop-color="#5855EF"/>
            <stop offset="1" stop-color="#A752E9"/>
        </linearGradient>
        <linearGradient id="paint4_linear_343_2418" x1="-192.756" y1="-32.314" x2="-28.5289" y2="950.62" gradientUnits="userSpaceOnUse">
            <stop stop-color="#5855EF"/>
            <stop offset="1" stop-color="#A752E9"/>
        </linearGradient>
        <linearGradient id="paint5_linear_343_2418" x1="-192.756" y1="-32.314" x2="-28.5289" y2="950.62" gradientUnits="userSpaceOnUse">
            <stop stop-color="#5855EF"/>
            <stop offset="1" stop-color="#A752E9"/>
        </linearGradient>
        <linearGradient id="paint6_linear_343_2418" x1="-192.756" y1="-32.314" x2="-28.5289" y2="950.62" gradientUnits="userSpaceOnUse">
            <stop stop-color="#5855EF"/>
            <stop offset="1" stop-color="#A752E9"/>
        </linearGradient>
    </defs>
</svg>

